<svg width="100" height="84" viewBox="0 0 100 84" fill="none" xmlns="http://www.w3.org/2000/svg">
<g clip-path="url(#clip0_147_79)">
<path d="M3.9416 75.0926H81.5261V83.0508H3.9416L0 79.0717L3.9416 75.0926ZM3.9416 83.0508H0V79.0717L3.9416 83.0508ZM7.88321 3.97913V79.0717H0V3.97913L3.9416 0L7.88321 3.97913ZM0 3.97913V0H3.9416L0 3.97913ZM96.0584 7.95825H3.9416V0H96.0584L100 3.97913L96.0584 7.95825ZM96.0584 0H100V3.97913L96.0584 0ZM92.1168 79.0717V3.97913H100V79.0717H92.1168Z" fill="#FBFBFD"/>
<path d="M82.0184 30.835H55.2935V22.8768H82.0184V30.835Z" fill="#FBFBFD"/>
<path d="M74.0132 49.2345H54.5544V41.2762H74.0132V49.2345Z" fill="#FBFBFD"/>
<path d="M37.4355 51.0983V39.288H45.3187V51.0983L41.3771 55.0774L37.4355 51.0983ZM45.3187 51.0983V55.0774H41.3771L45.3187 51.0983ZM30.2939 47.1192H41.3771V55.0774H30.2939V47.1192Z" fill="#FBFBFD"/>
<path d="M25.3686 26.0469V37.8572H17.4854V26.0469L21.427 22.0677L25.3686 26.0469ZM17.4854 26.0469V22.0677H21.427L17.4854 26.0469ZM32.5113 30.026H21.427V22.0677H32.5113V30.026Z" fill="#FBFBFD"/>
</g>
<defs>
<clipPath id="clip0_147_79">
<rect width="100" height="83.0508" fill="white"/>
</clipPath>
</defs>
</svg>
