<svg width="100" height="113" viewBox="0 0 100 113" fill="none" xmlns="http://www.w3.org/2000/svg">
<g clip-path="url(#clip0_147_59)">
<path d="M47.9184 111.202L52.0816 103.995H47.9184L49.3767 103.145L50.8014 102.301L52.1951 101.459L53.5567 100.62L54.8859 99.7842L56.1842 98.9508L57.4514 98.1199L58.6865 97.2904L59.8931 96.4621L61.0688 95.6351L62.216 94.8082L63.3323 93.9825L64.4215 93.1568L65.4798 92.3311L66.5122 91.5041L67.5136 90.6784L68.488 89.8501L69.4391 89.018L70.3605 88.1871L71.2549 87.3537L72.126 86.5151L72.9687 85.6778L73.7868 84.8341L74.5818 83.9865L75.351 83.135L76.0995 82.2796L76.8222 81.4178L77.5242 80.5508L78.2004 79.6787L78.8586 78.8001L79.4935 77.9138L80.1078 77.0198L87.0147 81.6642L86.3075 82.6925L85.577 83.713L84.8234 84.7231L84.0465 85.7217L83.2464 86.7099L82.423 87.6904L81.5764 88.6619L80.7066 89.6244L79.811 90.5778L78.8921 91.5247L77.9462 92.4652L76.9796 93.3941L75.9872 94.3204L74.9677 95.239L73.9262 96.1511L72.8589 97.0594L71.762 97.9625L70.6444 98.8591L69.4959 99.7545L68.3241 100.642L67.1252 101.53L65.8979 102.413L64.6448 103.295L63.3633 104.175L62.0534 105.053L60.7164 105.93L59.3511 106.808L57.9547 107.685L56.5313 108.562L55.0781 109.441L53.594 110.321L52.0816 111.202H47.9183L47.9184 111.202ZM52.0816 111.202L50 112.403L47.9184 111.202H52.0816ZM2.83657 15.8441L5.48731 23.732L8.32389 19.7881L8.34583 24.0042L8.41166 28.0604L8.52908 31.9592L8.70072 35.7071L8.92913 39.3091L9.21949 42.7692L9.57438 46.0939L9.99897 49.2857L10.4958 52.3537L11.0688 55.3004L11.7218 58.1322L12.4574 60.8582L13.2782 63.4824L14.1893 66.0149L15.1933 68.4584L16.298 70.8258L17.5034 73.1236L18.8184 75.3581L20.2483 77.5423L21.7995 79.6787L23.4772 81.7791L25.2878 83.8459L27.2404 85.8869L29.3401 87.9111L31.5907 89.9199L34.0014 91.9196L36.576 93.9154L39.3197 95.9112L42.2363 97.9122L45.3348 99.9236L48.614 101.95L52.0817 103.995L47.9184 111.202L44.3114 109.074L40.8799 106.955L37.6162 104.835L34.5164 102.708L31.5766 100.57L28.7929 98.4115L26.1629 96.2286L23.6799 94.0135L21.3428 91.7622L19.1476 89.4657L17.0944 87.1202L15.1766 84.7232L13.3957 82.2667L11.7464 79.7497L10.2275 77.1668L8.8363 74.5182L7.56901 71.7973L6.42044 69.0029L5.38802 66.1323L4.46401 63.183L3.64584 60.1499L2.92572 57.0265L2.30112 53.8115L1.76298 50.4984L1.31 47.0821L0.931873 43.5588L0.626008 39.918L0.387272 36.1585L0.210481 32.2714L0.0904746 28.2513L0.0220676 24.0919L0.000125242 19.788L2.8367 15.844L2.83657 15.8441ZM0 19.7881V16.7976L2.83657 15.8442L0 19.7881V19.7881ZM51.3254 8.33299L5.48731 23.7321L2.83657 15.8442L48.6746 0.445101H51.3254V8.33299ZM48.6746 0.445101L50 0L51.3253 0.445101H48.6746H48.6746ZM94.5127 23.7321L48.6746 8.33299L51.3254 0.445101L97.1634 15.8442L100 19.7881L94.5127 23.7321L94.5127 23.7321ZM97.1634 15.8442L100 16.7976V19.7881L97.1634 15.8441V15.8442ZM94.8986 65.2641L86.9747 62.7122L87.2999 61.6711L87.6135 60.6132L87.9129 59.5398L88.1982 58.4509L88.4691 57.3478L88.7285 56.2228L88.9763 55.0798L89.2112 53.9225L89.4332 52.7433L89.6435 51.5474L89.8423 50.3321L90.0281 49.0961L90.2036 47.8421L90.3675 46.5661L90.5211 45.2683L90.6643 43.9523L90.796 42.6157L90.9173 41.256L91.0283 39.8755L91.1302 38.4705L91.2231 37.0436L91.3057 35.5961L91.3793 34.1254L91.4438 32.6288L91.5019 31.1103L91.5483 29.5673L91.5896 27.9985L91.6206 26.409L91.6451 24.7899L91.6632 23.1502L91.6722 21.482L91.6761 19.7881H100L99.9961 21.513L99.9871 23.2173L99.969 24.8983L99.9445 26.5536L99.9109 28.1894L99.8696 29.8021L99.8206 31.3941L99.7625 32.9642L99.6954 34.5124L99.6193 36.0425L99.5315 37.552L99.436 39.0408L99.3289 40.5103L99.2128 41.9604L99.0837 43.395L98.9443 44.809L98.7933 46.2075L98.6295 47.5854L98.4552 48.9465L98.2668 50.2934L98.0655 51.6222L97.8513 52.9382L97.6229 54.2347L97.3802 55.5171L97.1247 56.7853L96.8537 58.0368L96.5685 59.2753L96.2665 60.5022L95.9478 61.7124L95.6148 62.9096L95.2651 64.094L94.8986 65.2641L94.8986 65.2641Z" fill="#FBFBFD"/>
<path d="M37.6445 71.3446L23.9043 51.728L30.7234 46.9545L44.4636 66.571L43.4415 72.3663L37.6445 71.3446H37.6445ZM43.4415 72.3663L40.032 74.7531L37.6445 71.3446L43.4415 72.3663H43.4415ZM80.4821 46.4372L43.4415 72.3663L38.6666 65.5493L75.7072 39.6201L80.4821 46.4372Z" fill="#FBFBFD"/>
</g>
<defs>
<clipPath id="clip0_147_59">
<rect width="100" height="112.403" fill="white"/>
</clipPath>
</defs>
</svg>
