<svg width="100" height="101" viewBox="0 0 100 101" fill="none" xmlns="http://www.w3.org/2000/svg">
<path d="M0 50.0129H7.47341L7.49927 51.099L7.55098 52.1851L7.62856 53.2713L7.732 54.3315L7.8613 55.3918L8.01646 56.452L8.19747 57.5123L8.40435 58.5725L8.63708 59.6069L8.89568 60.6413L9.18014 61.6757L9.49045 62.6842L9.82662 63.6928L10.1887 64.7013L10.5766 65.684L10.9903 66.6667L11.4299 67.6493L11.8954 68.6061L12.3609 69.563L12.8522 70.4939L13.3694 71.4249L13.9124 72.33L14.4813 73.2351L15.0761 74.1143L15.6967 74.9935L16.3432 75.8469L17.0156 76.7003L17.7138 77.5278L18.412 78.3294L19.1361 79.1311L19.886 79.9069L20.6618 80.6568L15.4899 86.0357L14.5848 85.1306L13.7056 84.2255L12.8522 83.2945L12.0247 82.3377L11.223 81.355L10.4473 80.3724L9.69733 79.3638L8.97326 78.3294L8.27505 77.295L7.6027 76.2348L6.95622 75.1487L6.33559 74.0626L5.74082 72.9506L5.17191 71.8386L4.62886 70.7008L4.11167 69.563L3.64619 68.3993L3.20658 67.2356L2.79283 66.046L2.40494 64.8565L2.0429 63.6669L1.70673 62.4515L1.39642 61.2361L1.13782 60.0207L0.905084 58.7794L0.698208 57.5381L0.517191 56.2969L0.362034 55.0297L0.258595 53.7626L0.181017 52.4955L0.129298 51.2283L0.103438 49.9612L0 50.0129ZM49.9865 0.0258598V7.49935L47.7884 7.55107L45.6162 7.70623L43.4957 7.96483L41.4011 8.32687L39.3324 8.79234L37.3153 9.36126L35.35 10.0336L33.4105 10.7836L31.5228 11.6369L29.6867 12.5679L27.9024 13.6023L26.1699 14.7142L24.5148 15.9038L22.9115 17.1709L21.36 18.5156L19.886 19.9121L18.4896 21.3861L17.1449 22.9377L15.8778 24.541L14.6882 26.196L13.5763 27.9286L12.5419 29.7129L11.6109 31.549L10.7576 33.4368L10.0076 35.3763L9.33529 37.3416L8.76638 39.3587L8.30091 41.4275L7.93888 43.5221L7.68028 45.6426L7.52513 47.8148L7.47341 50.0129H0L0.0775786 47.4528L0.258595 44.9185L0.56891 42.4101L1.00852 39.9534L1.57743 37.5226L2.24978 35.1435L3.02557 32.8161L3.93065 30.5405L4.93917 28.3165L6.05113 26.1702L7.26653 24.0755L8.55951 22.0584L9.95592 20.0931L11.4299 18.2053L13.0073 16.3951L14.6624 14.6625L16.3949 13.0075L18.2051 11.43L20.0929 9.95604L22.0582 8.55961L24.0752 7.26661L26.1699 6.0512L28.3162 4.93923L30.5401 3.93069L32.8158 3.0256L35.1431 2.24981L37.5222 1.57745L39.953 1.00853L42.4096 0.568916L44.918 0.258598L47.4523 0.0775795L50.0123 0L49.9865 0.0258598ZM99.973 50.0129H92.4996L92.4478 47.8148L92.2927 45.6426L92.0341 43.5221L91.6721 41.4275L91.2066 39.3587L90.6377 37.3416L89.9653 35.3763L89.2154 33.4368L88.362 31.549L87.4311 29.7129L86.3967 27.9286L85.2848 26.196L84.0952 24.541L82.8281 22.9377L81.4834 21.3861L80.0611 19.9121L78.5871 18.5156L77.0356 17.1709L75.4323 15.9038L73.7773 14.7142L72.0447 13.6023L70.2604 12.5679L68.4243 11.6369L66.5366 10.7836L64.5971 10.0336L62.6318 9.36126L60.6148 8.79234L58.546 8.32687L56.4514 7.96483L54.3309 7.70623L52.1587 7.55107L49.9606 7.49935V0.0258598L52.5207 0.103439L55.055 0.284458L57.5633 0.594776L60.02 1.03439L62.4508 1.60331L64.8299 2.27567L67.1572 3.05146L69.4329 3.95655L71.6568 4.96509L73.8031 6.07706L75.8977 7.29247L77.9148 8.58547L79.8801 9.9819L81.7679 11.4559L83.578 13.0334L85.3106 14.6884L86.9656 16.421L88.5431 18.2312L90.0171 20.119L91.4135 22.0843L92.7064 24.1014L93.9218 26.196L95.0338 28.3424L96.0423 30.5663L96.9474 32.842L97.7232 35.1694L98.3955 37.5485L98.9644 39.9793L99.4041 42.436L99.7144 44.9444L99.8954 47.4787L99.973 50.0388V50.0129ZM49.9865 100V92.5265L52.1845 92.4748L54.3567 92.3196L56.4772 92.061L58.5718 91.699L60.6406 91.2335L62.6577 90.6646L64.623 89.9922L66.5624 89.2423L68.4502 88.3889L70.2862 87.458L72.0705 86.4236L73.8031 85.3116L75.4581 84.122L77.0614 82.8549L78.613 81.5102L80.087 80.1138L81.5093 78.6398L82.854 77.0882L84.1211 75.4849L85.3106 73.8298L86.4226 72.0972L87.457 70.3129L88.3879 68.4768L89.2413 66.5891L89.9912 64.6496L90.6635 62.6842L91.2324 60.6672L91.6979 58.5984L92.06 56.5037L92.3186 54.3832L92.4737 52.211L92.5254 50.0129H99.9988L99.9212 52.573L99.7402 55.1073L99.4299 57.6157L98.9903 60.0724L98.4214 62.5032L97.749 64.8823L96.9733 67.2097L96.0682 69.4854L95.0597 71.7093L93.9477 73.8557L92.7323 75.9503L91.4393 77.9674L90.0429 79.9327L88.5689 81.8205L86.9915 83.6307L85.3365 85.3633L83.6039 87.0183L81.7937 88.5958L79.906 90.0698L77.9406 91.4662L75.9236 92.7592L73.829 93.9746L71.6826 95.0866L69.4587 96.0951L67.1831 97.0002L64.8557 97.776L62.4766 98.4484L60.0458 99.0173L57.5892 99.4569L55.0808 99.7672L52.5466 99.9483L49.9865 100.026V100ZM30.1781 95.9141L33.1261 89.0613L33.6174 89.2681L34.1087 89.475L34.6259 89.6819L35.1431 89.8629L35.6603 90.0439L36.1775 90.225L36.6947 90.406L37.2119 90.5611L37.7291 90.7163L38.2463 90.8715L38.7634 91.0266L39.2806 91.1559L39.7978 91.2852L40.315 91.4145L40.8322 91.5438L41.3753 91.6473L41.8925 91.7507L42.4096 91.8541L42.9527 91.9576L43.4957 92.0352L44.0388 92.1127L44.5818 92.1903L45.1249 92.2679L45.6679 92.3196L46.211 92.3713L46.754 92.423L47.2971 92.4748L47.8401 92.5006L48.3832 92.5265L48.9262 92.5523H49.4693H50.0123V100.026H49.3659H48.7194L48.0729 100L47.4264 99.9741L46.7799 99.9483L46.1334 99.8965L45.5128 99.8448L44.8663 99.7931L44.2198 99.7155L43.5992 99.6379L42.9786 99.5604L42.3579 99.4569L41.7373 99.3535L41.1167 99.25L40.496 99.1207L39.8754 98.9914L39.2548 98.8622L38.6341 98.7328L38.0135 98.5777L37.3929 98.4225L36.7723 98.2674L36.1516 98.0863L35.531 97.9053L34.9362 97.7243L34.3415 97.5174L33.7467 97.3106L33.1519 97.1037L32.5572 96.8968L31.9624 96.6641L31.3676 96.4313L30.7728 96.1986L30.1781 95.94V95.9141Z" fill="#FBFBFD"/>
<path fill-rule="evenodd" clip-rule="evenodd" d="M29.9194 54.5125H44.5818C41.0649 83.5014 44.5818 54.5125 41.0649 83.5014C70.0534 45.5133 41.0649 83.5014 70.0534 45.5133H55.3911C56.6065 35.8417 57.796 26.196 58.9856 16.5244C29.9194 54.5125 58.9856 16.5244 29.9194 54.5125Z" fill="#FBFBFD"/>
</svg>
