<svg width="101" height="101" viewBox="0 0 101 101" fill="none" xmlns="http://www.w3.org/2000/svg">
<path d="M49.4175 35.9362H41.9441V35.5977L41.9183 35.2591L41.8666 34.9206L41.8148 34.6081L41.7373 34.2956L41.6597 33.9831L41.5562 33.6707L41.4269 33.3842L41.2976 33.0978L41.1425 32.8113L40.9873 32.5249L40.8322 32.2645L40.6512 32.004L40.4443 31.7436L40.2374 31.5093L40.0305 31.2749L39.7978 31.0666L39.5651 30.8583L39.3323 30.676L39.0737 30.4937L38.8151 30.3114L38.5307 30.1552L38.2462 30.025L37.9618 29.8948L37.6773 29.7646L37.367 29.6604L37.0567 29.5823L36.7464 29.5041L36.4361 29.4521L36.0999 29.4L35.7637 29.3739H35.4275V21.8482L36.1516 21.8742L36.8498 21.9263L37.548 22.0044L38.2462 22.1346L38.9186 22.2909L39.5909 22.4732L40.2374 22.7075L40.8839 22.9679L41.5045 23.2544L42.1252 23.5669L42.7199 23.9054L43.2888 24.27L43.8319 24.6606L44.3491 25.0772L44.8663 25.5199L45.3576 25.9887L45.8231 26.4834L46.2627 27.0042L46.6764 27.5251L47.0643 28.0719L47.4264 28.6448L47.7625 29.2437L48.0728 29.8427L48.3573 30.4676L48.6159 31.1187L48.8486 31.7697L49.0297 32.4467L49.1848 33.1238L49.3141 33.8269L49.3917 34.53L49.4434 35.2331L49.4693 35.9622L49.4175 35.9362ZM35.4534 49.9982V42.4724H35.7896L36.1257 42.4464L36.4619 42.3943L36.7722 42.3422L37.0825 42.2641L37.3929 42.186L37.7032 42.0818L37.9876 41.9516L38.2721 41.8214L38.5565 41.6651L38.841 41.5089L39.0996 41.3266L39.3582 41.1443L39.6168 40.936L39.8495 40.7277L40.0823 40.5194L40.2891 40.285L40.496 40.0506L40.7029 39.7902L40.8839 39.5298L41.0649 39.2694L41.2201 38.983L41.3752 38.6965L41.5045 38.4101L41.6338 38.1236L41.7373 37.8111L41.8148 37.4986L41.8924 37.1861L41.9441 36.8737L41.9959 36.5351L42.0217 36.1966V35.8581H49.4951L49.4693 36.5872L49.4175 37.2903L49.34 37.9934L49.2107 38.6965L49.0555 39.3736L48.8745 40.0506L48.6418 40.7016L48.3832 41.3527L48.0987 41.9776L47.7884 42.5766L47.4522 43.1755L47.0902 43.7484L46.7023 44.2952L46.2885 44.8161L45.8489 45.3108L45.3835 45.8056L44.8921 46.2743L44.4008 46.717L43.8836 47.1337L43.3406 47.5243L42.7716 47.8889L42.1769 48.2274L41.5821 48.5399L40.9615 48.8263L40.315 49.0867L39.6685 49.3211L38.9962 49.5034L38.3238 49.6596L37.6256 49.7898L36.9274 49.868L36.2292 49.92L35.5051 49.9461L35.4534 49.9982ZM21.4892 35.9362H28.9626V36.2747L28.9885 36.6132L29.0402 36.9518L29.0919 37.2643L29.1695 37.5768L29.2471 37.8892L29.3505 38.2017L29.4798 38.4882L29.6091 38.7746L29.7384 39.0611L29.8936 39.3475L30.0746 39.6079L30.2556 39.8683L30.4366 40.1027L30.6435 40.3371L30.8504 40.5714L31.0831 40.7798L31.3159 40.9881L31.5745 41.1964L31.8331 41.3787L32.0917 41.5349L32.3761 41.6912L32.6606 41.8474L32.945 41.9776L33.2295 42.1078L33.5398 42.212L33.8501 42.2901L34.1604 42.3682L34.4707 42.4203L34.8069 42.4724L35.1431 42.4984H35.4793V50.0242L34.7552 49.9982L34.057 49.9461L33.3588 49.868L32.6606 49.7378L31.9882 49.5815L31.3159 49.3992L30.6694 49.1649L30.0229 48.9044L29.4023 48.618L28.8075 48.3055L28.2127 47.967L27.6438 47.6024L27.1008 47.2118L26.5836 46.7952L26.0664 46.3525L25.575 45.8837L25.1096 45.389L24.67 44.8681L24.2562 44.3473L23.8683 43.8005L23.5063 43.2276L23.1701 42.6286L22.8598 42.0037L22.5753 41.3787L22.3167 40.7277L22.084 40.0767L21.903 39.3996L21.7478 38.7225L21.6185 38.0194L21.541 37.3163L21.4892 36.6132L21.4634 35.8841L21.4892 35.9362ZM35.4534 21.8742V29.4H35.1172L34.781 29.426L34.4449 29.4781L34.1346 29.5302L33.8242 29.6083L33.5139 29.6864L33.2036 29.7906L32.9192 29.9208L32.6347 30.051L32.3502 30.1812L32.0658 30.3374L31.8072 30.5197L31.5486 30.702L31.3159 30.8843L31.0831 31.0926L30.8504 31.301L30.6435 31.5353L30.4366 31.7697L30.2556 32.004L30.0746 32.2645L29.8936 32.5249L29.7384 32.8113L29.6091 33.0978L29.4798 33.3842L29.3505 33.6707L29.2471 33.9831L29.1695 34.2956L29.0919 34.6081L29.0402 34.9206L28.9885 35.2591L28.9626 35.5977V35.9362H21.4892L21.5151 35.2071L21.5668 34.504L21.6444 33.8009L21.7737 33.0978L21.9289 32.4207L22.1099 31.7436L22.3426 31.0926L22.6012 30.4416L22.8857 29.8166L23.196 29.2177L23.5321 28.6188L23.8942 28.0459L24.2821 27.499L24.6958 26.9782L25.1354 26.4574L25.6009 25.9626L26.0922 25.4939L26.6094 25.0512L27.1266 24.6345L27.6697 24.2439L28.2386 23.8794L28.8334 23.5408L29.4281 23.2283L30.0487 22.9419L30.6952 22.6815L31.3417 22.4471L32.0141 22.2648L32.6864 22.1086L33.3846 21.9784L34.0828 21.9003L34.781 21.8482L35.5051 21.8221L35.4534 21.8742Z" fill="#FBFBFD"/>
<path d="M64.6747 78.9033V71.3775H64.804H64.9333H65.0626H65.1919H65.3212L65.4505 71.3515L65.5798 71.3254L65.7091 71.2994L65.8384 71.2734L65.9677 71.2473L66.097 71.2213L66.2263 71.1952L66.3556 71.1692L66.4849 71.1431L66.6142 71.1171L66.7435 71.0911L66.8728 71.039L67.0021 70.9869L67.1314 70.9348L67.2348 70.8827L67.3641 70.8307L67.4934 70.7786L67.5968 70.7265L67.7261 70.6744L67.8296 70.6223L67.9589 70.5442L68.0882 70.4661L68.1916 70.414L68.295 70.3359L68.3985 70.2578L68.5019 70.1796L68.6054 70.1015L73.0015 76.169L72.7687 76.3252L72.536 76.4815L72.3033 76.6377L72.0705 76.794L71.8119 76.9502L71.5792 77.0804L71.3465 77.2106L71.0879 77.3408L70.8293 77.471L70.5707 77.6012L70.3121 77.7054L70.0535 77.8096L69.7949 77.9137L69.5363 78.0179L69.2777 78.096L69.0191 78.1741L68.7605 78.2523L68.5019 78.3304L68.2433 78.4085L67.9847 78.4866L67.7003 78.5387L67.4417 78.5908L67.1572 78.6429L66.8728 78.6949L66.5883 78.747L66.3039 78.7731L66.0453 78.7991L65.7608 78.8251L65.4763 78.8512L65.1919 78.8772H64.9074H64.623L64.6747 78.9033ZM50.7106 64.8413H58.184V65.1798L58.2098 65.5184L58.2615 65.8569L58.3133 66.1694L58.3908 66.4819L58.4684 66.7944L58.5718 67.1068L58.7012 67.3933L58.8304 67.6797L58.9856 67.9662L59.1408 68.2526L59.3218 68.513L59.5028 68.7734L59.7097 69.0339L59.9165 69.2682L60.1234 69.5026L60.3562 69.7109L60.5889 69.9192L60.8475 70.1276L61.1061 70.3098L61.3647 70.4921L61.6491 70.6484L61.9336 70.8046L62.2181 70.9348L62.5025 71.065L62.8128 71.1692L63.1231 71.2473L63.4334 71.3254L63.7438 71.3775L64.0799 71.4296L64.4161 71.4556H64.7523V78.9814L64.0282 78.9554L63.33 78.9033L62.6318 78.8251L61.9336 78.6949L61.2612 78.5387L60.5889 78.3564L59.9424 78.122L59.2959 77.8616L58.6753 77.5752L58.0805 77.2627L57.4857 76.9242L56.9168 76.5596L56.3738 76.169L55.8566 75.7523L55.3653 75.3097L54.8739 74.8409L54.4085 74.3462L53.9689 73.8514L53.5551 73.3306L53.1672 72.7837L52.8052 72.2108L52.469 71.6119L52.1587 71.0129L51.8742 70.388L51.6156 69.737L51.3829 69.0859L51.2019 68.4089L51.0467 67.7318L50.9174 67.0287L50.8398 66.3256L50.7881 65.6225L50.7623 64.8934L50.7106 64.8413ZM64.6747 50.7793V58.3051H64.3385L64.0024 58.3311L63.6662 58.3832L63.3559 58.4353L63.0456 58.5134L62.7352 58.5915L62.4249 58.6957L62.1405 58.8259L61.856 58.9561L61.5716 59.0863L61.2871 59.2426L61.0285 59.4248L60.7699 59.6071L60.5372 59.7894L60.3044 59.9977L60.0717 60.2061L59.8648 60.4404L59.658 60.6748L59.4511 60.9352L59.2701 61.1956L59.1149 61.456L58.9597 61.7425L58.8046 62.0289L58.6753 62.3154L58.546 62.6018L58.4426 62.9143L58.365 63.2268L58.2874 63.5393L58.2357 63.8518L58.184 64.1903L58.1581 64.5288V64.8673H50.6847L50.7106 64.1382L50.7623 63.4351L50.8398 62.732L50.9691 62.0289L51.1243 61.3519L51.3053 60.6748L51.5381 60.0238L51.7967 59.3728L52.0811 58.7478L52.3914 58.1488L52.7276 57.5499L53.0896 56.977L53.4775 56.4302L53.8913 55.9093L54.3309 55.3885L54.7964 54.8938L55.2877 54.425L55.8049 53.9823L56.3221 53.5657L56.8651 53.1751L57.434 52.8105L58.0288 52.472L58.6494 52.1595L59.2701 51.873L59.9165 51.6126L60.563 51.3783L61.2354 51.196L61.9077 51.0397L62.6059 50.9095L63.3041 50.8314L64.0024 50.7793L64.7264 50.7533L64.6747 50.7793ZM78.6389 64.8413H71.1654V64.5028L71.1396 64.1642L71.0879 63.8257L71.0362 63.5132L70.9586 63.2007L70.881 62.8883L70.7776 62.5758L70.6483 62.2893L70.519 62.0029L70.3638 61.7164L70.2086 61.43L70.0535 61.1696L69.8725 60.9092L69.6656 60.6488L69.4587 60.4144L69.2518 60.18L69.0191 59.9717L68.7864 59.7634L68.5536 59.5811L68.295 59.3988L68.0364 59.2165L67.752 59.0603L67.4675 58.9301L67.1831 58.7999L66.8986 58.6697L66.5883 58.5655L66.278 58.4874L65.9677 58.4093L65.6574 58.3572L65.3212 58.3051L64.985 58.2791H64.6488V50.7533L65.3729 50.7793L66.0711 50.8314L66.7693 50.9095L67.4675 51.0397L68.1399 51.196L68.8122 51.3783L69.4587 51.6126L70.1052 51.873L70.7258 52.1595L71.3465 52.472L71.9412 52.8105L72.5101 53.1751L73.0532 53.5657L73.5704 53.9823L74.0876 54.425L74.5789 54.8938L75.0444 55.3885L75.484 55.9093L75.8977 56.4302L76.2856 56.977L76.6477 57.5499L76.9838 58.1488L77.2942 58.7478L77.5786 59.3728L77.8372 60.0238L78.0699 60.6748L78.251 61.3519L78.4061 62.0289L78.5354 62.732L78.613 63.4351L78.6647 64.1382L78.6906 64.8673L78.6389 64.8413ZM76.4667 72.3931L70.1569 68.3568L70.2086 68.2526L70.2604 68.1485L70.3121 68.0443L70.3638 67.9401L70.4155 67.836L70.4672 67.7318L70.519 67.6277L70.5707 67.5235L70.6224 67.4193L70.6741 67.3152L70.7258 67.185L70.7517 67.0808L70.7776 66.9766L70.8293 66.8464L70.8551 66.7423L70.881 66.6381L70.9069 66.534L70.9327 66.4298L70.9586 66.3256L70.9844 66.2215L71.0103 66.1173L71.0362 65.9871L71.062 65.8829L71.0879 65.7788L71.1137 65.6486V65.5444V65.4142V65.31V65.2059V65.0757V64.9715V64.8673H78.5871V65.1278V65.3882V65.6225L78.5613 65.8829L78.5354 66.1433L78.5096 66.3777L78.4837 66.6381L78.4578 66.8725L78.432 67.1329L78.3803 67.3673L78.3285 67.6016L78.2768 67.836L78.2251 68.0703L78.1734 68.3308L78.1217 68.5651L78.0441 68.7995L77.9665 69.0339L77.8889 69.2682L77.8113 69.4765L77.7338 69.7109L77.6303 69.9453L77.5528 70.1536L77.4493 70.388L77.3459 70.6223L77.2424 70.8567L77.139 71.065L77.0356 71.2734L76.9063 71.5077L76.777 71.716L76.6477 71.9244L76.5184 72.1327L76.3891 72.341L76.4667 72.3931Z" fill="#FBFBFD"/>
<path d="M39.0995 77.0284L32.6346 73.2785L61.0284 23.7491L67.4933 27.499L39.0995 77.0284Z" fill="#FBFBFD"/>
<path d="M100.051 50.3887H92.5772L92.5254 48.1752L92.3703 45.9878L92.1117 43.8525L91.7497 41.7432L91.2842 39.6599L90.7153 37.6288L90.0429 35.6497L89.293 33.6966L88.4396 31.7957L87.5087 29.9468L86.4743 28.15L85.3624 26.4052L84.1728 24.7126L82.9057 23.0981L81.561 21.5356L80.1387 20.0513L78.6647 18.6451L77.1132 17.291L75.5099 16.015L73.8549 14.8171L72.1223 13.6974L70.338 12.6558L68.5019 11.7183L66.6142 10.859L64.6747 10.1038L62.7094 9.42672L60.6923 8.85383L58.6236 8.3851L56.529 8.02053L54.4085 7.76012L52.2363 7.60388L50.0382 7.5518V0.0260407L52.5983 0.104163L55.1325 0.286447L57.6409 0.598935L60.0976 1.04163L62.5284 1.61452L64.9074 2.29158L67.2348 3.0728L69.5105 3.98422L71.7344 4.99981L73.8807 6.11956L75.9753 7.34347L77.9924 8.6455L79.9577 10.0517L81.8455 11.536L83.6556 13.1245L85.3882 14.7911L87.0432 16.5358L88.6207 18.3587L90.0946 20.2596L91.4911 22.2387L92.784 24.2699L93.9994 26.3792L95.1114 28.5406L96.1199 30.7801L97.025 33.0717L97.8008 35.4153L98.4731 37.8111L99.042 40.2589L99.4817 42.7327L99.792 45.2587L99.973 47.8107L100.051 50.3887ZM50.0382 100.751V93.2256L52.2363 93.1735L54.4085 93.0173L56.529 92.7569L58.6236 92.3923L60.6923 91.9236L62.7094 91.3507L64.6747 90.6736L66.6142 89.9184L68.5019 89.0591L70.338 88.1216L72.1223 87.08L73.8549 85.9603L75.5099 84.7624L77.1132 83.4864L78.6647 82.1323L80.1387 80.7261L81.561 79.2418L82.9057 77.6793L84.1728 76.0648L85.3624 74.3722L86.4743 72.6274L87.5087 70.8306L88.4396 68.9817L89.293 67.0808L90.0429 65.1277L90.7153 63.1486L91.2842 61.1175L91.7497 59.0342L92.1117 56.9249L92.3703 54.7896L92.5254 52.6022L92.5772 50.3887H100.051L99.973 52.9667L99.792 55.5187L99.4817 58.0447L99.042 60.5185L98.4731 62.9664L97.8008 65.3621L97.025 67.7057L96.1199 69.9973L95.1114 72.2368L93.9994 74.3982L92.784 76.5075L91.4911 78.5387L90.0946 80.5178L88.6207 82.4187L87.0432 84.2416L85.3882 85.9863L83.6556 87.6529L81.8455 89.2414L79.9577 90.7257L77.9924 92.1319L75.9753 93.4339L73.8807 94.6578L71.7344 95.7776L69.5105 96.7932L67.2348 97.7046L64.9074 98.4858L62.5284 99.1629L60.0976 99.7358L57.6409 100.178L55.1325 100.491L52.5983 100.673L50.0382 100.751ZM0.0258595 50.3887H7.49927L7.55099 52.6022L7.70614 54.7896L7.96474 56.9249L8.32677 59.0342L8.79224 61.1175L9.36115 63.1486L10.0335 65.1277L10.7834 67.0808L11.6368 68.9817L12.5677 70.8306L13.6021 72.6274L14.7141 74.3722L15.9036 76.0388L17.1707 77.6533L18.5154 79.2157L19.9118 80.7L21.3858 82.1062L22.9374 83.4604L24.5407 84.7363L26.1957 85.9342L27.9283 87.054L29.7126 88.0956L31.5486 89.0331L33.4364 89.8924L35.3759 90.6476L37.3412 91.3246L39.3582 91.8975L41.427 92.3663L43.5216 92.7308L45.6421 92.9912L47.8143 93.1475L50.0124 93.1996V100.725L47.4523 100.647L44.918 100.465L42.4096 100.152L39.953 99.7097L37.5222 99.1368L35.1431 98.4598L32.8158 97.6786L30.5401 96.7671L28.3162 95.7515L26.1699 94.6318L24.0752 93.4079L22.0582 92.1059L20.0929 90.6997L18.2051 89.2153L16.395 87.6269L14.6624 85.9603L13.0073 84.2155L11.4299 82.3927L9.95592 80.4917L8.55951 78.5126L7.26653 76.4815L6.05113 74.3722L4.93917 72.2108L3.93065 69.9713L3.02557 67.6797L2.24978 65.3361L1.57743 62.9403L1.00852 60.4925L0.56891 58.0186L0.258595 55.4927L0.0775786 52.9407L0 50.3627L0.0258595 50.3887ZM50.0382 0.0260407V7.5518L47.8402 7.60388L45.6679 7.76012L43.5475 8.02053L41.4528 8.3851L39.3841 8.85383L37.367 9.42672L35.4017 10.1038L33.4622 10.859L31.5745 11.7183L29.7385 12.6558L27.9542 13.6974L26.2216 14.8171L24.5666 16.015L22.9633 17.291L21.4117 18.6451L19.9377 20.0513L18.5413 21.5356L17.1966 23.0981L15.9295 24.7126L14.7399 26.3792L13.628 28.1239L12.5936 29.9207L11.6627 31.7696L10.8093 33.6706L10.0594 35.6236L9.38701 37.6027L8.8181 39.6339L8.35263 41.7172L7.9906 43.8265L7.732 45.9618L7.57685 48.1492L7.52513 50.3627H0.0517191L0.129298 47.7846L0.310315 45.2327L0.620629 42.7067L1.06024 40.2328L1.62915 37.785L2.3015 35.3893L3.07729 33.0456L3.98237 30.754L4.99089 28.5145L6.10285 26.3532L7.31825 24.2439L8.61123 22.2127L10.0076 20.2336L11.4816 18.3326L13.0591 16.5098L14.7141 14.7651L16.4467 13.0985L18.2568 11.51L20.1446 10.0257L22.1099 8.61946L24.127 7.31743L26.2216 6.09352L28.3679 4.97377L30.5918 3.95818L32.8675 3.04676L35.1948 2.26554L37.5739 1.58848L40.0047 1.01559L42.4614 0.572895L44.9697 0.260407L47.504 0.078122L50.0641 0L50.0382 0.0260407Z" fill="#FBFBFD"/>
</svg>
