<svg width="101" height="101" viewBox="0 0 101 101" fill="none" xmlns="http://www.w3.org/2000/svg">
<path d="M50.0124 100V92.5265L52.2104 92.4748L54.3826 92.3196L56.5031 92.061L58.5977 91.699L60.6665 91.2335L62.6835 90.6646L64.6489 89.9922L66.5883 89.2423L68.4761 88.3889L70.3121 87.458L72.0964 86.4236L73.829 85.3116L75.484 84.1221L77.0873 82.8549L78.6389 81.5102L80.1129 80.1138L81.5093 78.6398L82.854 77.0882L84.1211 75.4849L85.3106 73.8298L86.4226 72.0972L87.457 70.3129L88.3879 68.4769L89.2413 66.5891L89.9912 64.6496L90.6636 62.6843L91.2325 60.6672L91.6979 58.5984L92.06 56.5038L92.3186 54.3833L92.4737 52.211L92.5254 50.0129H99.9988L99.9213 52.5731L99.7144 55.1073L99.4041 57.6157L98.9645 60.0724L98.3956 62.5032L97.7232 64.8823L96.9474 67.2097L96.0423 69.4854L95.0338 71.7093L93.9219 73.8557L92.7065 75.9504L91.4135 77.9674L90.0171 79.9328L88.5431 81.8205L86.9656 83.6307L85.3106 85.3633L83.578 87.0184L81.7679 88.5958L79.8801 90.0698L77.9148 91.4663L75.8978 92.7593L73.8031 93.9747L71.6568 95.0866L69.4329 96.0952L67.1572 97.0003L64.8299 97.7761L62.4508 98.4484L60.02 99.0173L57.5633 99.4569L55.055 99.7673L52.5207 99.9742L49.9606 100.052L50.0124 100ZM0.0258595 50.0129H7.49927L7.55099 52.211L7.70614 54.3833L7.96474 56.5038L8.32677 58.5984L8.79224 60.6672L9.36115 62.6843L10.0335 64.6496L10.7834 66.5891L11.6368 68.4769L12.5677 70.3129L13.6021 72.0972L14.7141 73.8298L15.9036 75.4849L17.1707 77.0882L18.5154 78.6398L19.9377 80.1138L21.4117 81.5102L22.9633 82.8549L24.5666 84.1221L26.2216 85.3116L27.9542 86.4236L29.7385 87.458L31.5745 88.3889L33.4622 89.2423L35.4017 89.9922L37.367 90.6646L39.3841 91.2335L41.4528 91.699L43.5475 92.061L45.6679 92.3196L47.8402 92.4748L50.0382 92.5265V100L47.4781 99.9224L44.9439 99.7156L42.4355 99.4052L39.9789 98.9656L37.5481 98.3967L35.169 97.7243L32.8416 96.9486L30.566 96.0434L28.3421 95.0349L26.1957 93.9229L24.1011 92.7075L22.084 91.4145L20.1187 90.0181L18.231 88.5441L16.4208 86.9667L14.6882 85.3116L13.0332 83.579L11.4558 81.7688L9.98178 79.8811L8.58537 77.9157L7.29239 75.8986L6.07699 73.804L4.96503 71.6576L3.95651 69.4337L3.05143 67.158L2.27564 64.8306L1.60329 62.4515L1.03438 60.0207L0.594769 57.564L0.284455 55.0556L0.0775786 52.5213L0 49.9612L0.0258595 50.0129ZM50.0124 0.0258598V7.49935L47.8143 7.55107L45.6421 7.70623L43.5216 7.96483L41.427 8.32687L39.3582 8.79235L37.3412 9.36126L35.3759 10.0336L33.4364 10.7836L31.5486 11.6369L29.7126 12.5679L27.9283 13.6023L26.1957 14.7143L24.5407 15.9038L22.9374 17.1709L21.3858 18.5156L19.9118 19.9379L18.4896 21.4119L17.1449 22.9635L15.8778 24.5669L14.6882 26.2219L13.5763 27.9545L12.5419 29.7388L11.6109 31.5749L10.7576 33.4626L10.0076 35.4021L9.33529 37.3675L8.76639 39.3845L8.30091 41.4533L7.93888 43.548L7.68028 45.6685L7.52513 47.8407L7.47341 50.0388H0L0.0775786 47.4787L0.284455 44.9444L0.594769 42.436L1.03438 39.9793L1.60329 37.5485L2.27564 35.1694L3.05143 32.842L3.95651 30.5663L4.96503 28.3424L6.07699 26.196L7.29239 24.1014L8.58537 22.0843L9.98178 20.119L11.4558 18.2312L13.0332 16.421L14.6882 14.6884L16.4208 13.0334L18.231 11.4559L20.1187 9.9819L22.084 8.58547L24.1011 7.29248L26.1957 6.07706L28.3421 4.96509L30.566 3.95656L32.8416 3.05146L35.169 2.27567L37.5481 1.60331L39.9789 1.03439L42.4355 0.594776L44.9439 0.284458L47.4781 0.0775795L50.0382 0L50.0124 0.0258598ZM84.7159 14.0936L79.4922 19.4207L79.5181 19.4466L78.7682 18.7484L77.9924 18.0502L77.2166 17.3778L76.4149 16.7313L75.6133 16.1107L74.7858 15.5159L73.9583 14.9211L73.1049 14.3522L72.2516 13.8092L71.3723 13.292L70.4931 12.8006L69.6139 12.3093L68.7088 11.8438L67.8037 11.4042L66.8728 10.9904L65.9418 10.6025L65.0109 10.2405L64.0541 9.90432L63.0973 9.56814L62.1405 9.25782L61.1578 8.97337L60.1752 8.71477L59.1925 8.48203L58.2098 8.27515L57.2013 8.09413L56.1928 7.93897L55.1843 7.80967L54.1757 7.70623L53.1672 7.62865L52.1328 7.57693L51.0985 7.55107H50.0641V0.0775795L51.2795 0.103439L52.4949 0.155159L53.7103 0.232739L54.8998 0.336178L56.0893 0.465477L57.2789 0.620636L58.4684 0.801655L59.658 1.00853L60.8216 1.24127L61.9853 1.49987L63.149 1.81019L64.2868 2.14637L65.4246 2.5084L66.5625 2.8963L67.6744 3.31006L68.7864 3.74968L69.8983 4.21515L70.9844 4.70649L72.0705 5.22369L73.1308 5.76675L74.191 6.33566L75.2254 6.93044L76.2598 7.55107L77.2683 8.19757L78.2768 8.86993L79.2595 9.56814L80.2163 10.2922L81.1731 11.0422L82.104 11.8179L83.0091 12.5937L83.9142 13.3954L84.7934 14.2229L84.8193 14.2488L84.7159 14.0936ZM84.69 14.0678L84.7159 14.0936L84.7676 14.1453L84.69 14.0678ZM93.0685 32.7644L79.4922 19.4207L84.7159 14.0936L98.2921 27.4373L93.0685 32.7644Z" fill="#FBFBFD"/>
<path d="M96.3009 34.3936H75.9236V26.9201H96.3009L100.025 30.644L96.3009 34.3678V34.3936ZM100.025 30.6698V34.3936H96.3009L100.025 30.6698ZM100.025 10.3181V30.6698H92.5513V10.3181H100.025Z" fill="#FBFBFD"/>
<path d="M39.5651 68.0631C34.0053 68.0631 29.454 66.3822 25.9371 63.0204C22.4202 59.6587 20.6617 55.3142 20.6617 50.0129C20.6617 44.7117 22.4202 40.3672 25.9371 37.0054C29.454 33.6437 34.0053 31.9628 39.5651 31.9628C43.7543 31.9628 47.4522 32.9713 50.6588 34.9884V42.4877C48.0987 39.9276 44.737 38.6605 40.5477 38.6605C36.9274 38.6605 33.9794 39.7207 31.6779 41.8154C29.3764 43.91 28.2127 46.6512 28.2127 49.9871C28.2127 53.2971 29.3505 56.0124 31.652 58.1329C33.9277 60.2276 36.9015 61.2878 40.5477 61.2878C44.7628 61.2878 48.1246 60.0207 50.6588 57.5123V65.0117C47.4522 67.0287 43.7543 68.0373 39.5651 68.0373V68.0631ZM55.5721 57.4089V43.5221H62.5283V57.4606C62.5283 58.8829 62.968 59.9948 63.873 60.7965C64.7781 61.5982 66.0452 61.986 67.7003 61.986C69.6656 61.986 71.2172 61.3654 72.3808 60.15V43.5221H79.3371V67.3908H73.2083L72.8722 65.8909C71.1396 67.2615 69.0191 67.9338 66.459 67.9338C63.0455 67.9338 60.382 67.0029 58.4425 65.141C56.5289 63.279 55.5463 60.6931 55.5463 57.383L55.5721 57.4089Z" fill="#FBFBFD"/>
</svg>
