<svg width="100" height="71" viewBox="0 0 100 71" fill="none" xmlns="http://www.w3.org/2000/svg">
<g clip-path="url(#clip0_147_50)">
<path d="M3.81934 63.5041H81.6231V70.922H3.81934L0 67.213L3.81934 63.5041ZM3.81934 70.922H0V67.213L3.81934 70.922ZM7.63868 3.70896V67.213H0V3.70896L3.81934 0L7.63868 3.70896ZM0 3.70896V0H3.81934L0 3.70896ZM96.1806 7.41793H3.81934V0H96.1806L100 3.70896L96.1806 7.41793ZM96.1806 0H100V3.70896L96.1806 0ZM92.3613 67.213V3.70896H100V67.213H92.3613Z" fill="#FBFBFD"/>
<path d="M21.8398 26.3961H3.81934V18.9783H21.8398V26.3961Z" fill="#FBFBFD"/>
<path d="M96.1806 26.6284H33.2954V19.2104H96.1806V26.6284Z" fill="#FBFBFD"/>
</g>
<defs>
<clipPath id="clip0_147_50">
<rect width="100" height="70.922" fill="white"/>
</clipPath>
</defs>
</svg>
