<?xml version="1.0" encoding="UTF-8"?>
<!DOCTYPE svg PUBLIC "-//W3C//DTD SVG 1.1//EN" "http://www.w3.org/Graphics/SVG/1.1/DTD/svg11.dtd">
<!-- Creator: CorelDRAW 2021.5 -->
<svg xmlns="http://www.w3.org/2000/svg" xml:space="preserve" width="153.723mm" height="24.6062mm" version="1.1" style="shape-rendering:geometricPrecision; text-rendering:geometricPrecision; image-rendering:optimizeQuality; fill-rule:evenodd; clip-rule:evenodd"
viewBox="0 0 25171.93 4029.24"
 xmlns:xlink="http://www.w3.org/1999/xlink"
 xmlns:xodm="http://www.corel.com/coreldraw/odm/2003">
 <defs>
  <style type="text/css">
   <![CDATA[
    .fil1 {fill:none}
    .fil0 {fill:white;fill-rule:nonzero}
   ]]>
  </style>
   <clipPath id="id0">
    <path d="M-0 4029.24l25171.93 0 0 -4029.24 -25171.93 0 0 4029.24z"/>
   </clipPath>
 </defs>
 <g id="Layer_x0020_1">
  <metadata id="CorelCorpID_0Corel-Layer"/>
  <g>
  </g>
  <g style="clip-path:url(#id0)">
   <g id="_105553140518976">
    <path class="fil0" d="M83.1 3.95l572.51 176.68c45.7,14.1 83.1,62.11 83.1,106.67l0 3198.6c0,44.56 -37.4,69.48 -83.1,55.36l-572.51 -176.67c-45.7,-14.12 -83.1,-62.13 -83.1,-106.67l0 -3198.62c0,-44.56 37.38,-69.46 83.1,-55.36zm984.97 2640.5l572.51 176.68c45.72,14.12 83.1,62.13 83.1,106.68l0 802.07c0,44.54 -37.42,69.46 -83.1,55.35l-572.51 -176.67c-45.7,-14.12 -83.1,-62.11 -83.1,-106.67l0 -802.07c0,-44.57 37.4,-69.48 83.1,-55.38zm984.97 -1920.36l572.51 176.7c45.69,14.1 83.1,62.11 83.1,106.67l0 2962.48c0,44.56 -37.42,69.46 -83.1,55.36l-572.51 -176.68c-45.7,-14.1 -83.12,-62.09 -83.12,-106.67l0 -2962.48c0,-44.57 37.4,-69.48 83.12,-55.38z"/>
    <path class="fil0" d="M3447.35 2605.93l0 -908.69c0,-40.77 34.09,-74.06 75.96,-74.06l216.89 0c41.82,0 75.96,33.29 75.96,74.06l0 908.69c0,118.29 35.26,213.76 105.78,286.45 70.44,72.7 162.28,109.06 275.36,109.06 113.08,0 204.92,-36.37 275.36,-109.06 70.53,-72.69 105.75,-168.15 105.75,-286.45l0 -908.69c0,-40.77 34.14,-74.06 76,-74.06l216.89 0c41.82,0 75.95,33.29 75.95,74.06l0 908.69c0,215.72 -69.71,391.54 -209.04,527.32 -139.28,135.83 -319.6,203.77 -540.9,203.77 -221.29,0 -401.58,-67.94 -540.93,-203.77 -139.33,-135.78 -209.03,-311.6 -209.03,-527.32z"/>
    <path class="fil0" d="M5402.17 3227.01l0 -1529.77c0,-40.77 34.14,-74.06 75.95,-74.06l218.92 0c24.22,0 45.01,9.86 59.88,28.43l677.35 844.83c20.32,25.36 53.37,34.93 84.56,24.46 31.19,-10.53 51.22,-37.88 51.22,-70.04l0 -753.62c0,-40.77 34.17,-74.06 76,-74.06l216.89 0c41.81,0 75.95,33.29 75.95,74.06l0 1529.77c0,40.77 -34.14,74.05 -75.95,74.05l-218.93 0c-24.17,0 -45.01,-9.86 -59.87,-28.43l-677.35 -844.83c-20.32,-25.36 -53.38,-34.93 -84.58,-24.46 -31.19,10.55 -51.2,37.88 -51.2,70.05l0 753.6c0,40.77 -34.19,74.06 -76,74.06l-216.89 0c-41.81,0 -75.95,-33.29 -75.95,-74.06l0 0.02z"/>
    <path class="fil0" d="M7481.99 1623.18l216.89 0c41.81,0 75.95,33.29 75.95,74.06l0 1529.77c0,40.77 -34.14,74.05 -75.95,74.05l-216.89 0c-41.9,0 -75.95,-33.29 -75.95,-74.05l0 -1529.77c0,-40.77 34.04,-74.06 75.95,-74.06z"/>
    <path class="fil0" d="M8678.59 2079.89c-107.35,104.64 -161,232.08 -161,382.29 0,150.22 53.64,277.62 161,382.3 107.4,104.68 238.12,157.02 392.23,157.02 154.02,0 284.78,-52.33 392.13,-157.02 107.37,-104.7 161.1,-232.1 161.1,-382.3 0,-150.21 -53.73,-277.65 -161.1,-382.29 -107.35,-104.68 -238.11,-157.02 -392.13,-157.02 -154.1,0 -284.82,52.33 -392.23,157.02zm-272.9 1000.7c-179.5,-170.99 -269.22,-377.15 -269.22,-618.4 0,-241.32 89.72,-447.41 269.22,-618.41 179.5,-170.99 401.2,-256.5 665.13,-256.5 263.85,0 485.55,85.51 665.08,256.5 179.5,171 269.22,377.1 269.22,618.41 0,241.25 -89.77,447.41 -269.22,618.4 -179.53,171 -401.23,256.43 -665.08,256.43 -263.93,0 -485.63,-85.43 -665.13,-256.43z"/>
    <path class="fil0" d="M10363.12 3227.01l0 -1529.77c0,-40.77 34.14,-74.06 75.95,-74.06l218.92 0c24.19,0 45.01,9.86 59.88,28.43l677.35 844.83c20.32,25.36 53.38,34.93 84.58,24.46 31.19,-10.53 51.2,-37.88 51.2,-70.04l0 -753.62c0,-40.77 34.09,-74.06 76,-74.06l216.89 0c41.81,0 75.95,33.29 75.95,74.06l0 1529.77c0,40.77 -34.14,74.05 -75.95,74.05l-218.93 0c-24.17,0 -44.97,-9.86 -59.87,-28.43l-677.35 -844.83c-20.37,-25.36 -53.38,-34.93 -84.58,-24.46 -31.19,10.55 -51.25,37.88 -51.25,70.05l0 753.6c0,40.77 -34.14,74.06 -75.95,74.06l-216.89 0c-41.81,0 -76,-33.29 -76,-74.06l0.05 0.02z"/>
    <path class="fil0" d="M13741.67 2817.99l137.5 134.08c29.25,28.54 29.64,74.8 0.92,103.83 -39.56,39.81 -84.1,77.35 -133.78,112.63 -0.61,0.44 -1.18,0.84 -1.78,1.31 -166.97,111.37 -351.11,167.14 -552.34,167.14 -263.95,0 -485.65,-85.51 -665.13,-256.5 -179.45,-170.94 -269.24,-377.08 -269.24,-618.4 0,-241.27 89.78,-447.41 269.24,-618.41 179.49,-170.94 401.18,-256.45 665.13,-256.45 201.59,0 382.73,55.95 543.38,167.78 48.57,33.8 93.06,71.62 133.39,113.41 28.21,29.1 27.51,74.85 -1.47,103.15l-138.73 135.22c-14.82,14.44 -32.88,21.75 -53.76,21.7 -20.98,0 -39,-7.3 -53.73,-21.75 -22.35,-21.86 -47.36,-43.21 -75.05,-64.09 -108.22,-79.89 -226.24,-119.86 -354.09,-119.86 -154.07,0 -284.82,52.37 -392.15,157 -107.4,104.7 -161.08,232.33 -161.08,382.3 0,150.22 53.68,277.67 161.08,382.35 107.32,104.64 238.07,156.95 392.15,156.95 129.23,0 251.11,-39.74 365.62,-119.24 0.52,-0.39 1.08,-0.79 1.6,-1.18 27.98,-20.52 52.91,-41.46 74.73,-62.86 14.82,-14.49 32.8,-21.81 53.76,-21.81 20.93,-0.05 39,7.27 53.82,21.7l0 0z"/>
    <path class="fil0" d="M14815.17 2593.93l201.67 0c25.48,0 47.45,-11.15 62.14,-31.47 14.67,-20.39 17.98,-44.28 9.3,-67.71l-167.35 -452.11 -9.84 0 -167.37 452.11c-8.61,23.45 -5.37,47.34 9.32,67.71 14.64,20.32 36.57,31.47 62.13,31.47zm-732.15 606.41l605.25 -1529.77c11.53,-29.1 38.87,-47.41 70.84,-47.41l313.76 0c32.03,0 59.33,18.31 70.89,47.41l605.25 1529.77c9.32,23.45 6.42,47.73 -8.27,68.51 -14.56,20.78 -36.78,32.16 -62.6,32.16l-230.07 0c-32.23,0 -59.74,-18.57 -71.05,-48.08l-110.61 -287.35c-11.3,-29.49 -38.86,-48.08 -71.08,-48.08l-558.65 0c-32.23,0 -59.74,18.57 -71.1,48.08l-110.56 287.35c-11.35,29.49 -38.81,48.08 -71.1,48.08l-230.05 0c-25.77,0 -48.04,-11.38 -62.6,-32.16 -14.64,-20.78 -17.55,-45.06 -8.29,-68.51l0.05 0z"/>
    <path class="fil0" d="M15970.54 3021.08l138.37 -134.88c28.48,-27.74 74.05,-29.03 104.11,-3 17.9,15.46 36.4,29.33 55.54,41.49 90.21,59.13 190.16,88.67 299.99,88.67 93.45,0 163.73,-17.55 211.47,-52.71 47.54,-35.16 71.28,-81.53 71.28,-139.06 0,-51.14 -29.51,-93.88 -88.52,-128.2 -59,-34.35 -130.67,-64.3 -215.1,-89.91 -84.4,-25.53 -168.84,-55.94 -253.29,-91.09 -84.35,-35.11 -156.1,-89.06 -215.1,-161.77 -59.02,-72.7 -88.52,-163.42 -88.52,-272.05 0,-137.42 56.97,-253.66 170.87,-348.74 113.9,-95.12 265.98,-142.63 456.14,-142.63 160.64,0 304.83,38.33 432.69,115.05 28.51,17.05 56.26,36.35 83.22,57.87 17.21,13.75 26.61,32 27.69,53.61 1.13,21.65 -6.42,40.72 -22.09,56l-138.09 134.63c-27.9,27.25 -72.13,29.16 -102.42,4.49 -11.82,-9.63 -23.25,-18.11 -34.22,-25.53 -0.64,-0.39 -1.16,-0.8 -1.82,-1.21 -75.29,-47.55 -152.71,-71.33 -232.7,-71.33 -172.13,0 -258.17,55.94 -258.17,167.76 0,51.12 29.51,93.86 88.51,128.25 59.02,34.37 130.72,64.32 215.2,89.85 84.4,25.59 168.84,55.95 253.24,91.11 84.35,35.16 156.1,89.06 215.12,161.82 59,72.7 88.51,163.36 88.51,272 0,143.82 -59.39,265.67 -178.24,365.55 -118.83,99.87 -276.64,149.8 -473.33,149.8 -188.28,0 -354.43,-43.8 -498.53,-131.46 -0.44,-0.25 -0.7,-0.39 -1.05,-0.62 -39.64,-23.22 -75.37,-48.54 -107.22,-75.82 -16.34,-14.05 -25.04,-32.05 -25.74,-53.22 -0.69,-21.24 6.84,-39.76 22.27,-54.77l-0.03 0.03z"/>
    <path class="fil0" d="M17901.45 3227.01l0 -1194.19c0,-40.77 -34.14,-74.05 -75.95,-74.05l-339.84 0c-41.85,0 -75.95,-33.31 -75.95,-74.06l0 -187.46c0,-40.77 34.09,-74.08 75.95,-74.08l1200.36 0c41.82,0 75.96,33.31 75.96,74.08l0 187.46c0,40.76 -34.14,74.06 -75.96,74.06l-339.75 0c-41.9,0 -76,33.29 -76,74.05l0 1194.19c0,40.77 -34.14,74.05 -75.95,74.05l-216.89 0c-41.81,0 -76,-33.29 -76,-74.05l0 0z"/>
    <polygon class="fil0" points="19491.69,2249.29 19491.69,1636.33 19626.44,1636.33 19626.44,2126.69 19918.41,2126.69 19918.41,2249.29 "/>
    <polygon class="fil0" points="20016.8,1636.33 20151.53,1636.33 20151.53,2249.29 20016.8,2249.29 "/>
    <polygon class="fil0" points="20322.19,2249.29 20322.19,1636.33 20443.47,1636.33 20748.91,2017.24 20748.91,1636.33 20883.66,1636.33 20883.66,2249.29 20762.33,2249.29 20456.94,1868.39 20456.94,2249.29 "/>
    <polygon class="fil0" points="21054.31,2249.29 21054.31,1636.33 21189.1,1636.33 21189.1,1899.03 21431.62,1636.33 21593.28,1636.33 21359.71,1890.27 21611.26,2249.29 21454.07,2249.29 21269.94,1986.6 21189.1,2069.78 21189.1,2249.29 "/>
    <polygon class="fil0" points="21696.65,1636.33 21831.38,1636.33 21831.38,2249.29 21696.65,2249.29 "/>
    <polygon class="fil0" points="22002.01,2249.29 22002.01,1636.33 22123.27,1636.33 22428.71,2017.24 22428.71,1636.33 22563.46,1636.33 22563.46,2249.29 22442.18,2249.29 22136.79,1868.39 22136.79,2249.29 "/>
    <path class="fil0" d="M23058.01 2017.24l0 -105.09 251.5 0 0 232.06c-20.32,22.76 -43.7,42.62 -70.05,59.54 -58.7,39.1 -126.64,58.67 -203.88,58.67 -96.4,0 -177.42,-31.21 -243.02,-93.7 -65.55,-62.47 -98.3,-137.78 -98.3,-225.92 0,-88.16 32.75,-163.45 98.3,-225.92 65.6,-62.45 146.62,-93.71 243.02,-93.71 73.64,0 139.81,20.45 198.51,61.29 25.12,17.54 47.31,37.96 66.45,61.32l-89.8 87.56c-12,-15.18 -27.26,-29.77 -45.85,-43.79 -39.51,-29.2 -82.61,-43.77 -129.31,-43.77 -56.28,0 -104.08,19.11 -143.28,57.36 -39.22,38.24 -58.83,84.84 -58.83,139.66 0,54.87 19.62,101.41 58.83,139.66 39.2,38.22 87,57.36 143.28,57.36 39.51,0 73.95,-7.88 103.28,-23.65 15.56,-8.19 27.56,-16.34 35.93,-24.55l0 -74.41 -116.77 0 0 0.02z"/>
    <polygon class="fil0" points="19608.49,3300.1 19608.49,2809.72 19428.83,2809.72 19428.83,2687.12 19922.88,2687.12 19922.88,2809.72 19743.24,2809.72 19743.24,3300.1 "/>
    <polygon class="fil0" points="20021.73,3300.1 20021.73,2687.12 20156.53,2687.12 20156.53,2927.93 20425.96,2927.93 20425.96,2687.12 20560.71,2687.12 20560.71,3300.1 20425.96,3300.1 20425.96,3050.53 20156.53,3050.53 20156.53,3300.1 "/>
    <polygon class="fil0" points="20731.4,3300.1 20731.4,2687.12 21198.5,2687.12 21198.5,2809.72 20866.15,2809.72 20866.15,2927.93 21126.61,2927.93 21126.61,3046.14 20866.15,3046.14 20866.15,3177.48 21207.47,3177.48 21207.47,3300.1 "/>
    <polygon class="fil0" points="21535.31,3300.1 21535.31,2687.12 21997.93,2687.12 21997.93,2809.72 21670.04,2809.72 21670.04,2954.19 21926.05,2954.19 21926.05,3076.81 21670.04,3076.81 21670.04,3300.1 "/>
    <path class="fil0" d="M22103.55 3046.14l0 -359.04 134.75 0 0 359.04c0,43.21 12.9,78.09 38.64,104.65 25.74,26.54 59.28,39.82 100.61,39.82 41.33,0 74.87,-13.28 100.59,-39.82 25.74,-26.56 38.64,-61.44 38.64,-104.65l0 -359.04 134.75 0 0 359.04c0,78.81 -25.48,143.03 -76.39,192.65 -50.91,49.62 -116.75,74.44 -197.6,74.44 -80.86,0 -146.7,-24.82 -197.61,-74.44 -50.91,-49.62 -76.39,-113.84 -76.39,-192.65z"/>
    <polygon class="fil0" points="22927.81,3300.1 22927.81,2809.72 22748.2,2809.72 22748.2,2687.12 23242.23,2687.12 23242.23,2809.72 23062.56,2809.72 23062.56,3300.1 "/>
    <path class="fil0" d="M23338.89 3046.14l0 -359.04 134.75 0 0 359.04c0,43.21 12.85,78.09 38.6,104.65 25.74,26.54 59.26,39.82 100.61,39.82 41.33,0 74.87,-13.28 100.59,-39.82 25.74,-26.56 38.64,-61.44 38.64,-104.65l0 -359.04 134.75 0 0 359.04c0,78.81 -25.43,143.03 -76.34,192.65 -50.91,49.62 -116.8,74.44 -197.64,74.44 -80.84,0 -146.7,-24.82 -197.61,-74.44 -50.91,-49.62 -76.34,-113.84 -76.34,-192.65l0 0z"/>
    <path class="fil0" d="M24187.71 2976.09l139.25 0c25.12,0 45.67,-7.73 61.52,-23.19 15.85,-15.47 23.83,-35.47 23.83,-59.98 0,-24.55 -7.97,-44.52 -23.83,-60 -15.85,-15.47 -36.4,-23.2 -61.52,-23.2l-139.25 0 0 166.37 0 0zm-134.73 324.01l0 -612.98 278.49 0c67.02,0 120.49,18.85 160.31,56.49 39.86,37.65 59.74,87.41 59.74,149.31 0,60.13 -17.93,107.7 -53.89,142.72 -14.95,15.75 -32.93,28.02 -53.91,36.78l130.28 227.68 -148.21 0 -112.3 -201.41 -125.78 0 0 201.41 -134.73 0 0 0z"/>
    <polygon class="fil0" points="24695.88,3300.1 24695.88,2687.12 25162.97,2687.12 25162.97,2809.72 24830.62,2809.72 24830.62,2927.93 25091.08,2927.93 25091.08,3046.14 24830.62,3046.14 24830.62,3177.48 25171.94,3177.48 25171.94,3300.1 "/>
   </g>
  </g>
  <polygon class="fil1" points="-0,4029.24 25171.93,4029.24 25171.93,0 -0,0 "/>
 </g>
</svg>
