<svg width="581" height="93" viewBox="0 0 581 93" fill="none" xmlns="http://www.w3.org/2000/svg">
<g clip-path="url(#clip0_143_210)">
<path d="M1.91849 0.0910733L15.1328 4.16938C16.1876 4.49478 17.0508 5.60292 17.0508 6.63123V80.4592C17.0508 81.4875 16.1876 82.0627 15.1328 81.7369L1.91849 77.659C0.863649 77.3332 6.10352e-05 76.2254 6.10352e-05 75.1971V1.36921C6.10352e-05 0.340528 0.86327 -0.234327 1.91849 0.0910733ZM24.6525 61.0373L37.8668 65.1153C38.922 65.441 39.7852 66.5492 39.7852 67.5775V86.0904C39.7852 87.1187 38.9216 87.6939 37.8668 87.3681L24.6525 83.2902C23.5977 82.9644 22.7345 81.8567 22.7345 80.8284V62.3155C22.7345 61.2868 23.5977 60.7118 24.6525 61.0373ZM47.3867 16.7129L60.601 20.7912C61.6558 21.1166 62.5191 22.2247 62.5191 23.2531V91.6309C62.5191 92.6592 61.6555 93.2344 60.601 92.909L47.3867 88.8307C46.3319 88.5053 45.4683 87.3975 45.4683 86.3688V17.991C45.4683 16.9624 46.3315 16.3873 47.3867 16.7129Z" fill="url(#paint0_linear_143_210)"/>
<path d="M79.5696 60.1484V39.1746C79.5696 38.2335 80.3564 37.465 81.3229 37.465H86.3287C87.2941 37.465 88.0821 38.2335 88.0821 39.1746V60.1484C88.0821 62.8786 88.896 65.0819 90.5235 66.7599C92.1496 68.4379 94.2692 69.277 96.8793 69.277C99.4894 69.277 101.609 68.4377 103.235 66.7599C104.863 65.0819 105.676 62.8786 105.676 60.1484V39.1746C105.676 38.2335 106.464 37.465 107.43 37.465H112.436C113.401 37.465 114.189 38.2335 114.189 39.1746V60.1484C114.189 65.1275 112.58 69.1853 109.364 72.3194C106.149 75.4544 101.987 77.0227 96.8793 77.0227C91.7715 77.0227 87.6105 75.4544 84.3942 72.3194C81.1779 69.1853 79.5696 65.1275 79.5696 60.1484Z" fill="#1F1F1D"/>
<path d="M124.689 74.4836V39.1746C124.689 38.2335 125.477 37.465 126.442 37.465H131.495C132.054 37.465 132.534 37.6925 132.877 38.1212L148.511 57.621C148.98 58.2064 149.743 58.4272 150.463 58.1857C151.183 57.9425 151.645 57.3113 151.645 56.569V39.1746C151.645 38.2335 152.434 37.465 153.399 37.465H158.405C159.37 37.465 160.158 38.2335 160.158 39.1746V74.4836C160.158 75.4247 159.37 76.1928 158.405 76.1928H153.352C152.794 76.1928 152.313 75.9653 151.97 75.5367L136.336 56.0369C135.867 55.4515 135.104 55.2307 134.384 55.4723C133.664 55.7155 133.202 56.3465 133.202 57.089V74.4834C133.202 75.4245 132.413 76.1926 131.448 76.1926H126.442C125.477 76.1926 124.689 75.4243 124.689 74.4834L124.689 74.4836Z" fill="#1F1F1D"/>
<path d="M172.694 37.465H177.7C178.665 37.465 179.453 38.2335 179.453 39.1746V74.4836C179.453 75.4247 178.665 76.1928 177.7 76.1928H172.694C171.727 76.1928 170.941 75.4245 170.941 74.4836V39.1746C170.941 38.2335 171.727 37.465 172.694 37.465Z" fill="#1F1F1D"/>
<path d="M200.313 48.0064C197.835 50.4215 196.597 53.3631 196.597 56.8303C196.597 60.2974 197.835 63.238 200.313 65.6542C202.792 68.0706 205.809 69.2783 209.366 69.2783C212.921 69.2783 215.939 68.0706 218.417 65.6542C220.895 63.2378 222.135 60.2972 222.135 56.8303C222.135 53.3631 220.895 50.4215 218.417 48.0064C215.939 45.5901 212.921 44.3823 209.366 44.3823C205.809 44.3823 202.792 45.5901 200.313 48.0064ZM194.014 71.1039C189.871 67.1574 187.8 62.3991 187.8 56.8305C187.8 51.2606 189.871 46.5036 194.014 42.5567C198.157 38.6101 203.274 36.6367 209.366 36.6367C215.456 36.6367 220.573 38.6101 224.717 42.5567C228.86 46.5036 230.931 51.2606 230.931 56.8305C230.931 62.3991 228.859 67.1574 224.717 71.1039C220.573 75.0509 215.456 77.0228 209.366 77.0228C203.274 77.0228 198.157 75.0509 194.014 71.1039Z" fill="#1F1F1D"/>
<path d="M239.194 74.4836V39.1746C239.194 38.2335 239.982 37.465 240.947 37.465H246C246.558 37.465 247.039 37.6925 247.382 38.1212L263.016 57.621C263.485 58.2064 264.248 58.4272 264.968 58.1857C265.688 57.9425 266.15 57.3113 266.15 56.569V39.1746C266.15 38.2335 266.937 37.465 267.904 37.465H272.91C273.875 37.465 274.663 38.2335 274.663 39.1746V74.4836C274.663 75.4247 273.875 76.1928 272.91 76.1928H267.857C267.299 76.1928 266.819 75.9653 266.475 75.5367L250.841 56.0369C250.371 55.4515 249.609 55.2307 248.889 55.4723C248.169 55.7155 247.706 56.3465 247.706 57.089V74.4834C247.706 75.4245 246.918 76.1926 245.953 76.1926H240.947C239.982 76.1926 239.193 75.4243 239.193 74.4834L239.194 74.4836Z" fill="#1F1F1D"/>
<path d="M317.175 65.0427L320.349 68.1373C321.024 68.796 321.033 69.8638 320.37 70.534C319.457 71.4528 318.429 72.3194 317.282 73.1336C317.268 73.1439 317.255 73.153 317.241 73.1637C313.387 75.7342 309.137 77.0214 304.492 77.0214C298.4 77.0214 293.283 75.0479 289.14 71.1013C284.998 67.1559 282.926 62.3978 282.926 56.8279C282.926 51.2593 284.998 46.501 289.14 42.5541C293.283 38.6086 298.4 36.6352 304.492 36.6352C309.145 36.6352 313.326 37.9264 317.034 40.5074C318.155 41.2876 319.182 42.1609 320.113 43.1251C320.764 43.7969 320.748 44.8529 320.079 45.5061L316.877 48.6271C316.535 48.9605 316.118 49.129 315.636 49.1279C315.152 49.1279 314.736 48.9592 314.396 48.626C313.88 48.1215 313.303 47.6287 312.664 47.1466C310.166 45.3025 307.442 44.3801 304.491 44.3801C300.935 44.3801 297.917 45.5887 295.44 48.0038C292.961 50.4206 291.722 53.3662 291.722 56.8281C291.722 60.2951 292.961 63.2369 295.44 65.6532C297.917 68.0683 300.935 69.2757 304.491 69.2757C307.474 69.2757 310.287 68.3584 312.93 66.5236C312.942 66.5145 312.955 66.5053 312.967 66.4962C313.613 66.0228 314.188 65.5394 314.692 65.0453C315.034 64.7109 315.449 64.5421 315.933 64.5421C316.416 64.5409 316.833 64.7096 317.175 65.0429L317.175 65.0427Z" fill="#1F1F1D"/>
<path d="M341.953 59.8714H346.608C347.196 59.8714 347.703 59.6139 348.042 59.1447C348.381 58.6744 348.457 58.1229 348.257 57.5818L344.394 47.1465H344.167L340.304 57.5818C340.105 58.123 340.18 58.6746 340.519 59.1447C340.857 59.614 341.363 59.8714 341.953 59.8714ZM325.054 73.8679L339.024 38.5589C339.29 37.8871 339.921 37.4648 340.659 37.4648H347.901C348.64 37.4648 349.27 37.8871 349.537 38.5589L363.507 73.8679C363.722 74.4091 363.655 74.9697 363.316 75.4494C362.98 75.9291 362.467 76.1917 361.871 76.1917H356.561C355.817 76.1917 355.182 75.763 354.921 75.0819L352.368 68.4497C352.107 67.7688 351.471 67.3399 350.727 67.3399H337.833C337.089 67.3399 336.454 67.7686 336.192 68.4497L333.64 75.0819C333.378 75.7628 332.744 76.1917 331.999 76.1917H326.689C326.094 76.1917 325.58 75.9291 325.244 75.4494C324.906 74.9697 324.839 74.4091 325.053 73.8679H325.054Z" fill="#1F1F1D"/>
<path d="M368.62 69.7303L371.814 66.6172C372.471 65.9772 373.523 65.947 374.217 66.5481C374.63 66.9049 375.057 67.225 375.499 67.506C377.581 68.8705 379.888 69.5523 382.423 69.5523C384.58 69.5523 386.202 69.1474 387.304 68.3359C388.401 67.5243 388.949 66.4539 388.949 65.1261C388.949 63.946 388.268 62.9595 386.906 62.1673C385.544 61.3743 383.89 60.683 381.941 60.0921C379.993 59.5028 378.044 58.8008 376.095 57.9892C374.148 57.1792 372.492 55.9337 371.13 54.2555C369.768 52.5775 369.087 50.4838 369.087 47.9761C369.087 44.8044 370.402 42.1213 373.031 39.927C375.66 37.7315 379.17 36.635 383.559 36.635C387.267 36.635 390.595 37.5197 393.546 39.2907C394.204 39.6839 394.845 40.1296 395.467 40.6263C395.864 40.9439 396.081 41.3646 396.106 41.8637C396.132 42.3632 395.958 42.8035 395.596 43.1563L392.409 46.2639C391.765 46.8927 390.744 46.9371 390.045 46.3672C389.772 46.1451 389.508 45.9493 389.255 45.778C389.24 45.7689 389.228 45.7595 389.213 45.7502C387.475 44.6525 385.688 44.1037 383.842 44.1037C379.869 44.1037 377.883 45.3949 377.883 47.9759C377.883 49.156 378.564 50.1425 379.926 50.936C381.288 51.7294 382.943 52.4207 384.893 53.0099C386.841 53.6007 388.79 54.3012 390.738 55.1128C392.685 55.9241 394.341 57.1683 395.703 58.8477C397.065 60.5257 397.746 62.6182 397.746 65.1259C397.746 68.4453 396.375 71.2577 393.632 73.5632C390.889 75.8683 387.247 77.021 382.707 77.021C378.361 77.021 374.526 76.0097 371.2 73.9865C371.19 73.9811 371.184 73.9775 371.176 73.9721C370.261 73.4362 369.436 72.852 368.701 72.2222C368.324 71.8981 368.123 71.4825 368.107 70.9938C368.091 70.5036 368.265 70.0763 368.621 69.7299L368.62 69.7303Z" fill="#1F1F1D"/>
<path d="M413.188 74.4836V46.9203C413.188 45.9792 412.4 45.2111 411.435 45.2111H403.591C402.625 45.2111 401.838 44.4426 401.838 43.5018V39.1748C401.838 38.2337 402.625 37.4652 403.591 37.4652H431.297C432.262 37.4652 433.05 38.2337 433.05 39.1748V43.5018C433.05 44.4426 432.262 45.2111 431.297 45.2111H423.455C422.488 45.2111 421.701 45.9794 421.701 46.9203V74.4836C421.701 75.4247 420.913 76.1928 419.948 76.1928H414.942C413.977 76.1928 413.188 75.4245 413.188 74.4836H413.188Z" fill="#1F1F1D"/>
<path d="M449.893 51.9166V37.7686H453.003V49.0868H459.742V51.9166H449.893Z" fill="#A37151"/>
<path d="M462.013 37.7686H465.123V51.9166H462.013V37.7686Z" fill="#A37151"/>
<path d="M469.062 51.9166V37.7686H471.861L478.911 46.5605V37.7686H482.021V51.9166H479.221L472.172 43.1247V51.9166H469.062Z" fill="#A37151"/>
<path d="M485.96 51.9166V37.7686H489.071V43.832L494.669 37.7686H498.4L493.009 43.6297L498.815 51.9166H495.187L490.937 45.8532L489.071 47.7732V51.9166H485.96Z" fill="#A37151"/>
<path d="M500.786 37.7686H503.896V51.9166H500.786V37.7686Z" fill="#A37151"/>
<path d="M507.834 51.9166V37.7686H510.633L517.683 46.5605V37.7686H520.793V51.9166H517.994L510.945 43.1247V51.9166H507.834Z" fill="#A37151"/>
<path d="M532.208 46.5603V44.1349H538.013V49.491C537.544 50.0165 537.004 50.4751 536.396 50.8654C535.041 51.768 533.473 52.2195 531.69 52.2195C529.465 52.2195 527.595 51.499 526.081 50.0571C524.568 48.6151 523.812 46.8769 523.812 44.8424C523.812 42.8074 524.568 41.0697 526.081 39.6277C527.595 38.186 529.465 37.4648 531.69 37.4648C533.39 37.4648 534.917 37.9366 536.272 38.8795C536.852 39.284 537.364 39.7556 537.806 40.2948L535.733 42.3157C535.456 41.9652 535.104 41.6287 534.675 41.305C533.763 40.6313 532.768 40.2948 531.69 40.2948C530.391 40.2948 529.288 40.7358 528.383 41.6187C527.478 42.5011 527.025 43.577 527.025 44.8422C527.025 46.1087 527.478 47.1829 528.383 48.0658C529.288 48.9481 530.391 49.3897 531.69 49.3897C532.602 49.3897 533.397 49.2079 534.074 48.8441C534.433 48.6552 534.71 48.4669 534.903 48.2777V46.56H532.208L532.208 46.5603Z" fill="#A37151"/>
<path d="M452.589 76.1703V64.8517H448.442V62.0221H459.845V64.8517H455.699V76.1703H452.589Z" fill="#A37151"/>
<path d="M462.127 76.1703V62.0221H465.238V67.5803H471.457V62.0221H474.567V76.1703H471.457V70.4101H465.238V76.1703H462.127Z" fill="#A37151"/>
<path d="M478.507 76.1703V62.0221H489.288V64.8517H481.617V67.5803H487.629V70.3088H481.617V73.3405H489.495V76.1703H478.507Z" fill="#A37151"/>
<path d="M497.062 76.1703V62.0221H507.74V64.8517H500.172V68.1866H506.081V71.0165H500.172V76.1703H497.062Z" fill="#A37151"/>
<path d="M510.178 70.3088V62.0219H513.288V70.3088C513.288 71.3061 513.586 72.1111 514.18 72.7243C514.774 73.337 515.548 73.6435 516.502 73.6435C517.456 73.6435 518.23 73.337 518.824 72.7243C519.418 72.1111 519.716 71.3061 519.716 70.3088V62.0219H522.826V70.3088C522.826 72.1278 522.238 73.6103 521.063 74.7552C519.888 75.9005 518.368 76.4737 516.502 76.4737C514.636 76.4737 513.116 75.9005 511.941 74.7552C510.766 73.6103 510.178 72.1278 510.178 70.3088Z" fill="#A37151"/>
<path d="M529.203 76.1703V64.8517H525.057V62.0221H536.46V64.8517H532.313V76.1703H529.203Z" fill="#A37151"/>
<path d="M538.691 70.3088V62.0219H541.801V70.3088C541.801 71.3061 542.098 72.1111 542.692 72.7243C543.286 73.337 544.06 73.6435 545.014 73.6435C545.968 73.6435 546.742 73.337 547.336 72.7243C547.93 72.1111 548.228 71.3061 548.228 70.3088V62.0219H551.338V70.3088C551.338 72.1278 550.751 73.6103 549.576 74.7552C548.401 75.9005 546.88 76.4737 545.014 76.4737C543.148 76.4737 541.628 75.9005 540.453 74.7552C539.278 73.6103 538.691 72.1278 538.691 70.3088H538.691Z" fill="#A37151"/>
<path d="M558.283 68.692H561.497C562.077 68.692 562.551 68.5133 562.917 68.1567C563.283 67.7995 563.467 67.3379 563.467 66.7721C563.467 66.2057 563.283 65.7447 562.917 65.3875C562.551 65.0303 562.077 64.8517 561.497 64.8517H558.283V68.6918V68.692ZM555.173 76.1703V62.0221H561.601C563.148 62.0221 564.382 62.4571 565.301 63.3259C566.221 64.1949 566.68 65.3437 566.68 66.7723C566.68 68.16 566.266 69.258 565.436 70.0666C565.091 70.4302 564.676 70.7133 564.192 70.9153L567.199 76.1705H563.778L561.186 71.5217H558.283V76.1705H555.173L555.173 76.1703Z" fill="#A37151"/>
<path d="M570.012 76.1703V62.0221H580.793V64.8517H573.122V67.5803H579.134V70.3088H573.122V73.3405H581V76.1703H570.012Z" fill="#A37151"/>
</g>
<defs>
<linearGradient id="paint0_linear_143_210" x1="0.000440135" y1="-2.39723e-05" x2="62.519" y2="-2.39723e-05" gradientUnits="userSpaceOnUse">
<stop stop-color="#C8977F"/>
<stop offset="0.0901961" stop-color="#C5937B"/>
<stop offset="0.180392" stop-color="#C19076"/>
<stop offset="0.270588" stop-color="#BE8C72"/>
<stop offset="0.360784" stop-color="#BB896E"/>
<stop offset="0.45098" stop-color="#B7856A"/>
<stop offset="0.54902" stop-color="#B48266"/>
<stop offset="0.639216" stop-color="#B17F61"/>
<stop offset="0.729412" stop-color="#AD7B5D"/>
<stop offset="0.819608" stop-color="#AA7859"/>
<stop offset="0.909804" stop-color="#A67455"/>
<stop offset="1" stop-color="#A37151"/>
</linearGradient>
<clipPath id="clip0_143_210">
<rect width="581" height="93" fill="white"/>
</clipPath>
</defs>
</svg>
